<svg width="47" height="47" viewBox="0 0 47 47" version="1.1" xmlns="http://www.w3.org/2000/svg" xmlns:xlink="http://www.w3.org/1999/xlink">
<title>codepen</title>
<desc>Created using Figma</desc>
<g id="Canvas" transform="translate(-6757 -1234)">
<g id="codepen">
<g id="Vector">
<use xlink:href="#path0_fill" transform="translate(6757.24 1234.38)" fill="#FFFFFF"/>
</g>
</g>
</g>
<defs>
<path id="path0_fill" d="M 45.4422 14.5361L 24.2726 0.337899C 23.5489 -0.108071 22.7799 -0.117172 22.0471 0.337899L 0.877542 14.5361C 0.334733 14.9002 0 15.5464 0 16.2017L 0 30.3999C 0 31.0461 0.334733 31.7014 0.877542 32.0654L 22.0471 46.2636C 22.7709 46.7096 23.5398 46.7187 24.2726 46.2636L 45.4422 32.0654C 45.985 31.7014 46.3198 31.0552 46.3198 30.3999L 46.3198 16.2017C 46.3198 15.5464 45.985 14.9002 45.4422 14.5361ZM 25.1502 5.74414L 40.7379 16.2017L 33.7809 20.8798L 25.1502 15.0822L 25.1502 5.74414ZM 21.1696 5.74414L 21.1696 15.0822L 12.5389 20.8798L 5.58189 16.2017L 21.1696 5.74414ZM 3.9806 19.9423L 8.96541 23.3008L 3.9806 26.6501L 3.9806 19.9423ZM 21.1696 40.8483L 5.58189 30.3999L 12.5389 25.7217L 21.1696 31.5193L 21.1696 40.8483L 21.1696 40.8483ZM 23.1599 28.0335L 16.1305 23.3008L 23.1599 18.568L 30.1893 23.3008L 23.1599 28.0335ZM 25.1502 40.8483L 25.1502 31.5193L 33.7809 25.7217L 40.7379 30.3999L 25.1502 40.8483ZM 42.3392 26.6501L 37.3543 23.3008L 42.3392 19.9423L 42.3392 26.6501Z"/>
</defs>
</svg>
