<svg width="53" height="52" viewBox="0 0 53 52" version="1.1" xmlns="http://www.w3.org/2000/svg" xmlns:xlink="http://www.w3.org/1999/xlink">
<title>Github</title>
<desc>Created using Figma</desc>
<g id="Canvas" transform="translate(-6850 -1232)">
<g id="Github">
<use xlink:href="#path0_fill" transform="translate(6850.08 1232.17)" fill="#FFFFFF"/>
</g>
</g>
<defs>
<path id="path0_fill" d="M 17.3899 41.3524C 17.3899 41.5648 17.1488 41.7347 16.8448 41.7347C 16.4989 41.7666 16.2578 41.5966 16.2578 41.3524C 16.2578 41.14 16.4989 40.9701 16.8029 40.9701C 17.1174 40.9382 17.3899 41.1081 17.3899 41.3524ZM 14.13 40.8745C 14.0566 41.0869 14.2662 41.3312 14.5807 41.3949C 14.8532 41.5011 15.1677 41.3949 15.2306 41.1825C 15.2935 40.9701 15.0943 40.7258 14.7799 40.6303C 14.5073 40.5559 14.2033 40.6621 14.13 40.8745ZM 18.7631 40.694C 18.4591 40.7683 18.2495 40.9701 18.2809 41.2143C 18.3123 41.4267 18.5849 41.5648 18.8994 41.4905C 19.2033 41.4161 19.413 41.2143 19.3815 41.002C 19.3501 40.8002 19.0671 40.6621 18.7631 40.694ZM 25.6603 0C 11.1216 0 0 11.1824 0 25.9116C 0 37.6887 7.31655 47.7666 17.7673 51.3135C 19.109 51.5578 19.5807 50.7188 19.5807 50.0285C 19.5807 49.3701 19.5492 45.7383 19.5492 43.5082C 19.5492 43.5082 12.2117 45.1011 10.6708 40.3435C 10.6708 40.3435 9.47588 37.2533 7.75681 36.4568C 7.75681 36.4568 5.35639 34.7895 7.92452 34.8214C 7.92452 34.8214 10.5346 35.0338 11.9706 37.5612C 14.2662 41.6604 18.1132 40.4816 19.6121 39.7807C 19.8532 38.0816 20.5346 36.9028 21.2893 36.2019C 15.4298 35.5435 9.51781 34.6833 9.51781 24.4674C 9.51781 21.547 10.3145 20.0815 11.9916 18.2125C 11.7191 17.5222 10.8281 14.6762 12.2641 11.0018C 14.4549 10.3116 19.4968 13.8691 19.4968 13.8691C 21.5933 13.2744 23.8469 12.9664 26.0796 12.9664C 28.3123 12.9664 30.566 13.2744 32.6624 13.8691C 32.6624 13.8691 37.7044 10.3009 39.8951 11.0018C 41.3312 14.6868 40.4402 17.5222 40.1677 18.2125C 41.8448 20.0921 42.8721 21.5576 42.8721 24.4674C 42.8721 34.7152 36.6981 35.5329 30.8385 36.2019C 31.8029 37.0409 32.6205 38.6338 32.6205 41.1294C 32.6205 44.7082 32.5891 49.1365 32.5891 50.0073C 32.5891 50.6976 33.0712 51.5365 34.4025 51.2923C 44.8846 47.7666 51.9916 37.6887 51.9916 25.9116C 51.9916 11.1824 40.1991 0 25.6603 0ZM 10.1887 36.6267C 10.0524 36.7329 10.0838 36.9772 10.262 37.1789C 10.4298 37.3488 10.6708 37.4232 10.8071 37.2851C 10.9434 37.1789 10.9119 36.9347 10.7337 36.7329C 10.566 36.563 10.3249 36.4887 10.1887 36.6267ZM 9.05659 35.7665C 8.98322 35.9046 9.08804 36.0745 9.29768 36.1807C 9.4654 36.2869 9.67504 36.255 9.74842 36.1064C 9.82179 35.9683 9.71697 35.7984 9.50733 35.6922C 9.29768 35.6285 9.12997 35.6603 9.05659 35.7665ZM 12.4528 39.5471C 12.2851 39.6851 12.348 40.0037 12.5891 40.2055C 12.8302 40.4497 13.1342 40.4816 13.2704 40.3117C 13.4067 40.1736 13.3438 39.855 13.1342 39.6533C 12.9036 39.409 12.5891 39.3772 12.4528 39.5471ZM 11.2578 37.986C 11.0901 38.0922 11.0901 38.3683 11.2578 38.6126C 11.4256 38.8568 11.7086 38.963 11.8449 38.8568C 12.0126 38.7188 12.0126 38.4427 11.8449 38.1984C 11.6981 37.9542 11.4256 37.848 11.2578 37.986Z"/>
</defs>
</svg>
