<svg width="37" height="37" viewBox="0 0 37 37" version="1.1" xmlns="http://www.w3.org/2000/svg" xmlns:xlink="http://www.w3.org/1999/xlink">
<title>linkedin-in</title>
<desc>Created using Figma</desc>
<g id="Canvas" transform="translate(-6666 -1239)">
<g id="linkedin-in">
<g id="Vector">
<use xlink:href="#path0_fill" transform="translate(6666.69 1239.78)" fill="#FFFFFF"/>
</g>
</g>
</g>
<defs>
<path id="path0_fill" d="M 8.04044 36.1399L 0.593213 36.1399L 0.593213 12.0117L 8.04044 12.0117L 8.04044 36.1399L 8.04044 36.1399ZM 4.31282 8.72038C 1.93195 8.72038 0 6.73591 0 4.34002C 0 1.94414 1.93195 0 4.31282 0C 6.69368 0 8.62563 1.94414 8.62563 4.34002C 8.62563 6.73591 6.69368 8.72038 4.31282 8.72038ZM 35.9134 36.1399L 28.4822 36.1399L 28.4822 24.3945C 28.4822 21.5952 28.4261 18.0054 24.6103 18.0054C 20.7384 18.0054 20.1452 21.0467 20.1452 24.1928L 20.1452 36.1399L 12.706 36.1399L 12.706 12.0117L 19.8486 12.0117L 19.8486 15.303L 19.9528 15.303C 20.9468 13.4073 23.3758 11.4067 26.9992 11.4067C 34.5346 11.4067 35.9214 16.4001 35.9214 22.8859L 35.9214 36.1399L 35.9134 36.1399Z"/>
</defs>
</svg>
